<?xml version="1.0" encoding="utf-8"?>
<!-- Generator: Adobe Illustrator 23.0.0, SVG Export Plug-In . SVG Version: 6.00 Build 0)  -->
<svg version="1.1" id="katman_1" xmlns="http://www.w3.org/2000/svg" xmlns:xlink="http://www.w3.org/1999/xlink" x="0px" y="0px"
	 viewBox="0 0 512 512" style="enable-background:new 0 0 512 512;" xml:space="preserve">
<style type="text/css">
	.st0{fill:url(#SVGID_1_);}
	.st1{fill:url(#SVGID_2_);}
	.st2{fill:url(#SVGID_3_);}
	.st3{fill:url(#SVGID_4_);}
</style>
<g id="layer101">
	<linearGradient id="SVGID_1_" gradientUnits="userSpaceOnUse" x1="20.2872" y1="255.8715" x2="491.6399" y2="255.8715">
		<stop  offset="0" style="stop-color:#231F20"/>
		<stop  offset="0.2274" style="stop-color:#414143"/>
		<stop  offset="0.3873" style="stop-color:#6B3935"/>
		<stop  offset="0.6726" style="stop-color:#BE281A"/>
		<stop  offset="1" style="stop-color:#EE4423"/>
	</linearGradient>
	<path class="st0" d="M203.9,487.5c-28.3-6.3-55.3-18-80.4-34.8c-47.3-31.6-82.1-81.5-96.4-138.2c-11.4-45-8.4-95.7,8.3-140.4
		c16.8-44.7,49.5-86,88.6-111.8c28.2-18.5,51.9-28.6,84-35.8c20.1-4.5,55.3-5.9,76.6-3.1c53,7,97.3,28.3,135.3,65.1
		c13.4,12.9,22.1,23.4,32.6,39c33.7,50.5,46.1,111,35.4,172.5c-5.1,29.6-20.2,66.8-36.3,89.7c-27.6,39.2-60.3,66.3-101.5,84.1
		c-21.4,9.1-50.6,16.9-60.4,15.9c-7.3-0.7-13.7-7.8-13.7-15.3c0-3.9,4.1-11.4,7-12.9c1.5-0.8,8-2.5,14.6-4c17-3.8,23.9-5.9,38.2-12
		c26.7-11.2,47.8-25.8,68.2-47.1c9.7-10.1,19.2-22.2,18.7-23.8c-0.2-0.6-5-3.8-10.7-7.1c-12.3-7.1-15-10.3-15-17.9
		c0-9.2,6.2-15.6,15-15.6c3.7,0,6.5,1.2,15.9,6.5c6.3,3.6,11.8,6.2,12.2,5.8c1.2-1.4,8.6-19.5,10.7-26.5c3.9-12.5,6.4-24.5,8.6-41
		l0.5-3.8h-13.7c-12.3,0-14.1-0.3-17.6-2.3c-10-5.7-10.2-20.7-0.4-26.7c2.9-1.7,5.1-2,17.6-2H460l-0.6-5.7
		c-2.2-21.7-9.6-50-16.5-63.5c-2.3-4.4-0.9-4.8-16.4,4.2c-10.9,6.3-14.7,7.1-20.9,4.1c-6-3-8.6-7.2-8.6-14.4
		c0-8.4,3.2-11.6,22.5-21.8c2.7-1.5,5.1-3.1,5.2-3.6c0.7-1.9-13.4-19.2-24.6-30.3c-12.3-12.2-26.4-23.6-27.9-22.6
		c-0.5,0.3-3.8,5.6-7.3,11.7c-3.7,6.3-7.8,12.2-9.7,13.6c-9.9,7.7-24.2,0.4-24.2-12.2c0-4.6,2.9-11.2,11-24.8c1.2-2,2-4.3,1.7-5.1
		c-0.6-1.4-16.8-8.2-28.3-11.7c-8.8-2.7-27.9-6.6-36.5-7.5l-6.9-0.7v12.9c0,14.5-1,19.7-4.7,23.6c-5.2,5.5-16.5,5.7-22,0.2
		c-4.4-4.4-5.3-8.3-5.3-23V53.7l-6.7,0.7c-11.5,1.2-30.3,5.3-42.3,9.4c-12.5,4.3-22.4,8.5-23.3,9.8c-0.2,0.5,2.6,6.2,6.4,12.7
		c6.1,10.4,6.9,12.4,6.9,16.9c0,6.6-2.7,11-8.6,13.9c-5.6,2.6-11,2.2-15.7-1.4c-1.8-1.4-6-7.3-9.6-13.6c-3.5-6.1-6.8-11.4-7.3-11.7
		c-1.5-1-15.7,10.5-27.9,22.6C101.8,123,87,140.9,87,143c0,0.5,4.6,3.4,10.3,6.6c5.6,3.2,11.9,7.5,13.9,9.6c3.5,3.6,3.8,4.4,3.8,9.5
		c0,7.2-2.6,11.4-8.6,14.4c-6.4,3.1-9.9,2.2-23.3-5.4c-6.3-3.6-11.8-6.4-12.2-6.1c-1.3,0.8-6.7,14.7-10.3,26.7
		c-3.4,11.3-6.7,27.4-8.1,40l-0.6,5.7h14.3c16,0,18.9,0.9,22.9,7.2c2.6,4.3,2.3,13.5-0.7,17.6c-3.9,5.2-7.5,6.2-22.6,6.2H52.1
		l0.4,2.8c0.3,1.5,1,6.3,1.6,10.7c2.5,18.1,6.7,32.3,16.6,56.3c0.9,2.1,3.2,1.4,14.2-4.8c12.7-7,17.1-7.7,23.4-3.5
		c4.7,3.3,6.7,7.2,6.7,13.3c0,7.3-2.8,10.7-14.5,17.5c-5.5,3.2-10.6,6.1-11.3,6.6c-3,1.8,23.5,31.2,39.3,43.6
		c27.5,21.6,55.4,34,92.8,41.5c12.9,2.6,18.3,14,11.7,24.8C228.9,490.4,221.5,491.4,203.9,487.5z"/>
	<linearGradient id="SVGID_2_" gradientUnits="userSpaceOnUse" x1="160.992" y1="386.3213" x2="351.0589" y2="386.3213">
		<stop  offset="0" style="stop-color:#231F20"/>
		<stop  offset="0.2274" style="stop-color:#414143"/>
		<stop  offset="0.3873" style="stop-color:#6B3935"/>
		<stop  offset="0.6726" style="stop-color:#BE281A"/>
		<stop  offset="1" style="stop-color:#EE4423"/>
	</linearGradient>
	<path class="st1" d="M244.5,405.3c-17.1-1.1-41.1-7.5-55.7-14.8c-10.5-5.2-26.6-16.2-27.3-18.6c-1.6-5.1-5.3-4.9,94-4.9
		c50.8,0,93,0.3,93.9,0.6c8.8,3.4-19,22-45.9,30.7C285.3,404.2,264.8,406.6,244.5,405.3z"/>
	<linearGradient id="SVGID_3_" gradientUnits="userSpaceOnUse" x1="117.5236" y1="232.9437" x2="394.2348" y2="232.9437">
		<stop  offset="0" style="stop-color:#231F20"/>
		<stop  offset="0.2274" style="stop-color:#414143"/>
		<stop  offset="0.3873" style="stop-color:#6B3935"/>
		<stop  offset="0.6726" style="stop-color:#BE281A"/>
		<stop  offset="1" style="stop-color:#EE4423"/>
	</linearGradient>
	<path class="st2" d="M164.5,345.8c-13.4-1.7-23.8-9.8-31.3-24.6c-21.1-41.3-20.9-86,0.6-128.7c5.5-11.1,23.4-34.5,26.2-34.5
		c0.5,0,1.5,1.2,2.2,2.8c0.8,1.5,4.2,7.5,7.6,13.4c3.4,5.9,6.2,10.9,6.2,11.2c0,0.2-2.5,3.8-5.5,7.8c-10.3,13.6-18,31.9-20.6,48.8
		c-1.7,11.2-0.6,30.3,2.5,42.5c3.4,13,10,27.2,13.8,29.1c2.3,1.2,16.5,1.4,89.7,1.4c63.2,0,87.7-0.3,89.5-1.1
		c1.6-0.8,3.9-3.9,6.4-8.8c15-29.1,14.9-66.2-0.3-96.1c-14.9-29.3-44.5-51.2-77.5-57.1c-9-1.6-29-1.3-38,0.5
		c-5.7,1.1-7.7,1.2-8.3,0.3c-0.4-0.7-2.8-4.8-5.4-9.2c-2.5-4.4-5.9-10-7.4-12.5l-2.9-4.5l2.9-1.2c1.6-0.7,7.5-2.2,13.2-3.5
		c14.6-3.2,40.7-3.2,55.6,0c49.3,10.6,87.9,45,103.8,92.6c6.5,19.3,8.5,45.2,5.1,65.9c-3.1,18.9-12.8,43.2-21,52.5
		c-4.4,5-13.7,10.8-19.6,12.2C346.2,346.4,175,347.1,164.5,345.8z"/>
	<linearGradient id="SVGID_4_" gradientUnits="userSpaceOnUse" x1="173" y1="211.8775" x2="286.6256" y2="211.8775">
		<stop  offset="0" style="stop-color:#231F20"/>
		<stop  offset="0.2274" style="stop-color:#414143"/>
		<stop  offset="0.3873" style="stop-color:#6B3935"/>
		<stop  offset="0.6726" style="stop-color:#BE281A"/>
		<stop  offset="1" style="stop-color:#EE4423"/>
	</linearGradient>
	<path class="st3" d="M250,293.1c-4.6-1-11.2-4.4-15.3-8c-8.5-7.5-12-22.1-7.9-32.9l2.1-5.3l-18.1-31.2
		c-9.9-17.2-21.5-37.3-25.8-44.7c-11.2-19.4-12-21-12-25.3c0-14.4,17.2-21,27-10.5c1.1,1.2,4.9,7.2,8.3,13.2
		c7.8,13.6,40.2,70,44.8,77.9c3.1,5.2,3.6,5.7,6.9,5.7c8.3,0,19.4,8.2,24.1,17.6c3.3,6.8,3.4,19.8,0.1,26.2
		C277.4,288.7,263.2,295.9,250,293.1z"/>
</g>
</svg>
